# xmcd
#
# Track frame offsets: 
#        150
#        24502
#        40939
#        55850
#        70062
#        87458
#        101665
#        110175
#        125211
#        143341
#        156112
#        172770
#        185563
#        206559
#        229282
#        241759
#
# Disc length: 3340 seconds
#
# Revision: 1
# Processed by: cddbd v1.5.2PL0 Copyright (c) Steve Scherf et al.
# Submitted via: ExactAudioCopy v0.95b4
#
DISCID=db0d0a10
DTITLE=João Chora - Ao vivo na Chamusca
DYEAR=2001
DGENRE=Fado
TTITLE0=Variações em lá menor
TTITLE1=Fado pequenino
TTITLE2=Fado do forcado
TTITLE3=Cavalo baio
TTITLE4=Jesus da Misericórdia
TTITLE5=Quinta Feira d'Ascensão
TTITLE6=Sou do fruto a raiz
TTITLE7=Nesse Quarto alugado
TTITLE8=Saltimbancos
TTITLE9=Guitarra triste
TTITLE10=O que é que eu digo à Saudade
TTITLE11=Gostar de ti
TTITLE12=Uma Andorinha do céu que ninguém viu
TTITLE13=Fado Ribatejo
TTITLE14=Rosinha dos Limoes
TTITLE15=Trovador
EXTD=
EXTT0=
EXTT1=
EXTT2=
EXTT3=
EXTT4=
EXTT5=
EXTT6=
EXTT7=
EXTT8=
EXTT9=
EXTT10=
EXTT11=
EXTT12=
EXTT13=
EXTT14=
EXTT15=
PLAYORDER=
